<svg width="3794" height="837" viewBox="0 0 3794 837" fill="none" xmlns="http://www.w3.org/2000/svg">
<path fill-rule="evenodd" clip-rule="evenodd" d="M753.991 634.196C736.048 634.261 718.269 630.773 701.68 623.933C685.09 617.092 670.018 607.035 657.331 594.341C644.644 581.647 634.594 566.567 627.759 549.97C620.924 533.373 617.44 515.586 617.508 497.636C617.502 479.709 621.029 461.957 627.887 445.395C634.746 428.833 644.8 413.786 657.477 401.115C670.153 388.444 685.202 378.398 701.763 371.55C718.323 364.703 736.071 361.189 753.991 361.209C771.902 361.2 789.639 364.723 806.188 371.576C822.738 378.429 837.775 388.478 850.44 401.148C863.105 413.818 873.149 428.861 880 445.417C886.85 461.973 890.371 479.718 890.362 497.636C890.436 515.579 886.959 533.359 880.134 549.951C873.308 566.544 863.268 581.621 850.592 594.315C837.915 607.009 822.854 617.068 806.275 623.912C789.695 630.757 771.926 634.252 753.991 634.196ZM241.759 634.196C166.386 634.196 105.964 573.772 105.964 497.636C105.964 422.233 166.386 361.209 241.759 361.209C317.131 361.209 378.241 422.233 378.241 497.636C378.303 515.585 374.815 533.368 367.978 549.963C361.141 566.558 351.091 581.636 338.405 594.328C325.719 607.021 310.649 617.078 294.063 623.92C277.476 630.763 259.7 634.255 241.759 634.196ZM1958.97 634.196C1883.59 634.196 1823.19 573.772 1823.19 497.636C1823.19 422.233 1883.59 361.209 1958.97 361.209C2033.72 361.209 2094.85 422.233 2094.85 497.636C2094.92 515.538 2091.47 533.279 2084.67 549.841C2077.88 566.403 2067.88 581.46 2055.26 594.148C2042.63 606.836 2027.63 616.905 2011.1 623.778C1994.58 630.65 1976.86 634.191 1958.97 634.196ZM1441.2 634.196C1423.25 634.305 1405.45 630.848 1388.84 624.023C1372.23 617.199 1357.14 607.144 1344.44 594.441C1331.75 581.738 1321.7 566.64 1314.88 550.023C1308.06 533.405 1304.61 515.599 1304.72 497.636C1304.67 479.697 1308.17 461.925 1315.01 445.343C1321.85 428.761 1331.91 413.697 1344.59 401.017C1357.28 388.337 1372.34 378.292 1388.92 371.46C1405.5 364.628 1423.27 361.145 1441.2 361.209C1459.12 361.197 1476.86 364.717 1493.42 371.568C1509.98 378.419 1525.02 388.465 1537.7 401.135C1550.37 413.804 1560.43 428.847 1567.29 445.405C1574.15 461.963 1577.68 479.712 1577.69 497.636C1577.74 515.584 1574.25 533.366 1567.42 549.96C1560.58 566.553 1550.53 581.63 1537.84 594.322C1525.16 607.014 1510.09 617.071 1493.5 623.915C1476.92 630.758 1459.14 634.252 1441.2 634.196ZM891.073 685.354C851.408 714.682 803.336 730.412 754.013 730.2C625.594 730.2 521.566 626.107 521.566 497.636C521.566 369.854 625.594 265.806 754.013 265.806C805.061 265.806 852.399 282.606 890.385 310.652V119.334H991.369V726.488H891.073V685.354ZM2512.32 414.189C2506.67 376.099 2476.13 348.742 2427.59 348.742C2402.05 348.742 2346.6 357.409 2346.6 390.455C2346.6 439.723 2430.72 444.056 2451.25 445.345C2585.89 457.812 2625.1 517.037 2625.1 586.817C2625.1 638.552 2598.93 677.176 2561.59 704.621C2529.82 727.666 2464.4 737 2424.48 737C2335.98 737 2246.3 688.465 2234.44 578.661H2333.54C2339.05 630.441 2393.32 649.752 2423.86 649.752C2479.26 649.752 2518.54 626.107 2518.54 598.662C2518.54 555.038 2478.06 545.66 2419.44 539.46C2386.52 535.726 2323.48 524.481 2297.35 502.658C2268.12 479.613 2243.17 453.39 2243.17 408.544C2243.17 328.119 2306.08 264.561 2430.12 263.872C2532.91 263.272 2610.79 324.408 2613.21 413.477L2512.32 414.189ZM378.841 685.354C339.179 714.704 291.092 730.436 241.759 730.2C112.806 730.2 10 626.107 10 497.636C10 369.854 112.806 265.806 241.759 265.806C292.895 265.806 340.233 282.606 378.841 310.652V266.428H478.515V726.488H378.841V685.354ZM1164.53 234.627V118.712H1064.23V234.627H1164.53ZM1164.53 726.466V266.406H1064.23V726.466H1164.53ZM2094.85 685.354C2057.44 713.999 2010.12 730.2 1958.97 730.2C1830.64 730.2 1726.61 626.107 1726.61 497.636C1726.61 369.854 1830.64 265.806 1958.97 265.806C2010.12 265.806 2057.46 282.606 2094.85 310.652V266.428H2195.72V726.488H2096.07L2094.85 685.354ZM1578.28 685.354C1540.3 713.999 1492.36 730.2 1441.2 730.2C1313.47 730.2 1208.84 626.107 1208.84 497.636C1208.84 369.854 1313.47 265.806 1441.2 265.806C1492.36 265.806 1539.7 282.606 1578.28 310.652V119.334H1677.98V726.488H1578.28V685.354ZM3400.23 445.345C3405.83 336.253 3373.37 216.537 3286.12 100C3201.44 209.093 3171.58 333.141 3179 445.345H3400.23ZM3192.06 531.926C3188.33 515.657 3185.22 499.252 3182.73 482.747H3396.45C3394.01 499.26 3390.9 515.666 3387.12 531.926H3192.06ZM3241.91 655.419C3255.64 678.263 3271.49 699.76 3289.25 719.621C3306.73 700.265 3322.3 678.42 3336.68 655.419H3241.91ZM3733.57 445.945C3758.48 394.188 3775.96 336.253 3784 271.406C3638.88 283.895 3524.85 354.276 3448.15 445.945H3733.57ZM3714.25 482.747C3704.27 500.147 3693.63 515.726 3682.48 531.926L3391.43 530.704C3400.76 515.126 3410.14 497.636 3420.76 482.747H3714.25ZM3599.58 617.996C3617.81 603.103 3634.89 586.84 3650.65 569.35L2927.87 568.75C2944.15 586.769 2961.85 603.446 2980.81 618.618L3599.58 617.996ZM3347.25 655.419C3342.97 676.13 3340.47 697.172 3339.79 718.31C3408.94 715.221 3480.58 693.998 3545.4 655.419H3347.25ZM2864.36 482.747C2874.92 500.147 2885.53 515.726 2897.42 531.926H3187.15C3179 515.126 3169.07 498.947 3158.39 482.747H2864.36ZM3033.79 655.419C3098.61 693.998 3169.67 715.221 3238.8 718.31C3238.02 697.212 3235.74 676.195 3231.98 655.419H3033.79ZM3130.35 445.945C3054.38 354.276 2941.02 283.895 2795.79 271.406C2803.17 331.766 2819.78 390.634 2845.04 445.945H3130.35Z" fill="#111827"/>
</svg>
