<svg width="3788" height="808" viewBox="0 0 3788 808" fill="none" xmlns="http://www.w3.org/2000/svg">
<path fill-rule="evenodd" clip-rule="evenodd" d="M313.354 655.202C181.455 655.202 68.8703 535.501 68.8703 404.937C68.8703 274.857 179.099 152.778 312.408 152.778C400.038 152.778 463.138 195.197 514.496 261.658H579.026C559.711 226.775 538.987 194.734 507.427 169.745C453.249 125.915 383.06 100 313.354 100C146.129 100 10 238.1 10 404.474C10 571.31 148.022 708 314.301 708C382.134 708 448.556 683.032 501.787 641.076C535.241 614.214 558.785 579.331 581.402 543.501H516.873C465.978 609.962 400.985 655.202 313.354 655.202ZM982.256 337.066C941.754 284.752 886.63 251.763 818.334 251.763C695.86 251.763 595.057 351.233 595.057 473.776C595.057 596.299 696.343 696.695 818.334 696.695C889.469 696.695 938.914 666.991 982.256 612.319V686.78H1035.49V262.121H982.256V337.066ZM815.514 647.666C721.761 647.666 647.805 566.131 647.805 474.239C647.805 382.79 721.297 300.793 815.514 300.793C909.247 300.793 982.256 382.81 982.256 474.239C982.256 566.131 908.764 647.666 815.514 647.666ZM1100.02 686.78H1157.03V112.232H1100.02V686.78ZM1372.29 619.372L1228.15 262.121H1171.62L1344.5 686.78H1401.96L1574.38 262.121H1518.8L1372.29 619.372ZM1597.93 686.78H1654.92V262.121H1597.93V686.78ZM1597.93 207.449H1654.92V112.232H1597.93V207.449ZM1900.35 251.743C1846.64 251.743 1808.49 280.036 1773.17 317.74V262.121H1720.4V686.78H1776.45V428.011C1775.99 359.676 1832.5 300.772 1901.28 300.772C1987.46 300.772 2030.8 375.717 2030.8 453.019V686.8H2083.55V453.019C2083.57 342.728 2019.06 251.743 1900.35 251.743ZM2612.58 112.232L2353.49 441.694V112.232H2297.44V686.78H2353.49V528.891L2426.98 437.462L2613.99 686.78H2685.14L2462.77 392.201L2685.14 112.232H2612.58ZM2705.85 686.78H2761.46V112.232H2705.85V686.78ZM3221.66 369.107C3183.03 296.984 3105.78 251.743 3024.27 251.743C2902.76 251.743 2800.04 353.087 2800.04 474.683C2800.04 597.205 2903.69 696.675 3025.25 696.675C3083.16 696.675 3140.2 673.581 3182.09 633.519C3207.54 609.478 3222.61 579.311 3236.24 547.733H3176.45C3146.28 606.657 3093.05 647.645 3024.25 647.645C2982.35 647.645 2941.37 630.678 2910.29 601.921C2878.23 572.721 2864.11 536.871 2857.97 494.471H3249.46C3249.48 450.178 3243.33 407.758 3221.66 369.107ZM2859.88 445.462C2876.88 365.822 2939.5 300.772 3025.25 300.772C3097.32 300.772 3174.57 345.086 3191.53 445.462H2859.88ZM3290.93 686.78H3346.96V262.121H3290.93V686.78ZM3290.93 209.344H3346.96V112.232H3290.93V209.344ZM3593.35 251.743C3538.67 251.743 3500.53 280.036 3464.72 317.74V262.121H3411.02V686.78H3467.56V428.011C3467.09 359.213 3525.04 300.772 3594.26 300.772C3680.02 300.772 3725.25 375.717 3725.25 453.019V686.8H3778V453.019C3778 342.728 3712.5 251.743 3593.35 251.743Z" fill="#111827"/>
</svg>
