<svg width="2080" height="756" viewBox="0 0 2080 756" fill="none" xmlns="http://www.w3.org/2000/svg">
<path fill-rule="evenodd" clip-rule="evenodd" d="M1308.85 75.6489C1332.34 118.981 1338.11 169.174 1341 221.183H1225.44C1225.09 184.712 1226.18 146.062 1198.36 121.16C1186.8 112.496 1167.66 111.043 1154.29 117.191C1131.54 128.021 1123.25 152.222 1122.53 175.698C1123.62 225.891 1160.8 264.164 1200.16 295.94L1279.6 367.08C1355.45 441.474 1386.88 557.385 1344.63 657.07C1317.9 719.896 1253.26 757.456 1185.73 755.304C1128.66 756.017 1073.05 734.357 1045.97 681.259C1023.22 636.475 1013.83 585.905 1015.27 531.043L1129.39 531.757C1130.83 570.77 1130.83 611.573 1163.33 636.474C1180.31 646.228 1204.87 644.788 1220.37 632.882C1245.65 612.286 1250.72 577.255 1242.06 546.555C1233.74 517.671 1213.51 493.133 1189.32 471.447L1106.99 400.671C1029.35 335.304 992.155 245.034 1011.3 144.635C1021.05 89.747 1059.32 30.5271 1115.3 11.3837C1171.99 -8.84913 1244.21 -1.9752 1286.46 44.6122C1295.5 54.3395 1303.08 64.8062 1308.85 75.6489ZM129.782 16.4289C206.706 17.8686 284.706 42.7964 320.45 116.815C354.405 185.788 357.298 268.133 358.011 351.191L357.648 477.945C355.119 547.982 344.652 614.815 309.621 671.143C273.876 721.699 218.612 741.919 160.118 745.537H0.849487V16.4289H129.782ZM577.576 745.9H441.069V16.4289H577.576V745.9ZM971.572 130.174H805.442L805.092 312.555L928.953 312.905L929.316 432.81H806.894V630.69H979.509V745.9H670.024V16.4289H971.572V130.174ZM1719.81 128.371H1555.51L1555.16 312.555L1679.02 312.905V432.81H1559.1V628.161H1731.39V745.9H1419.38V16.4289H1719.81V128.371ZM1925.65 627.448H2079.14V745.9H1791.33V16.4289H1925.65V627.448ZM198.392 155.452C215.356 186.865 216.809 225.151 218.612 263.062L218.262 528.864C214.293 567.877 210.324 614.815 167.706 629.99C156.863 633.232 144.593 632.143 133.388 630.703V130.174C158.666 130.174 185.396 131.613 198.392 155.452Z" fill="#111827"/>
</svg>
