<svg width="2480" height="1786" viewBox="0 0 2480 1786" fill="none" xmlns="http://www.w3.org/2000/svg">
<path d="M191.571 0C145.802 0 0.257213 14.4172 0.257213 200.925V1525.93C0.257213 1527.53 -7.52348 1656.83 62.5028 1731.89C80.0059 1749.9 101.134 1763.99 124.489 1773.22C147.844 1782.45 172.893 1786.62 197.978 1785.44C247.895 1784.34 295.714 1765.15 332.539 1731.43C337.27 1729.09 342.478 1727.88 347.757 1727.88C353.036 1727.88 358.243 1729.09 362.975 1731.43C368.67 1736.19 373.125 1742.25 375.955 1749.11C378.786 1755.97 379.907 1763.41 379.223 1770.79H404.396V939.862H466.641V916.978H202.326V939.862H279.905V1653.86C283.33 1684.89 275.182 1716.1 257.02 1741.5C249.492 1749.33 240.355 1755.43 230.241 1759.38C220.126 1763.33 209.275 1765.04 198.436 1764.39C189.288 1764.62 180.192 1762.95 171.723 1759.48C163.254 1756.01 155.596 1750.83 149.235 1744.25C124.52 1718.85 112.848 1671.02 114.679 1602.14V148.062C114.679 142.799 120.4 22.1979 186.994 22.1979C253.588 22.1979 333.225 190.169 360.458 511.238V561.812H383.342V14.8749H360.458V59.4994L358.398 60.8725C353.171 64.5851 346.957 66.6565 340.548 66.8225C331.847 64.2128 323.966 59.405 317.664 52.863C282.761 21.5838 238.345 2.96307 191.571 0ZM1999.44 1772.17H2287.32V1749.28H2187.78V1057.03H2311.35C2332.53 1058.39 2353.77 1055.47 2373.8 1048.45C2393.83 1041.43 2412.24 1030.45 2427.93 1016.17C2443.63 1001.88 2456.29 984.582 2465.16 965.3C2474.03 946.018 2478.92 925.148 2479.55 903.934V200.696C2479.55 31.3516 2262.84 28.1478 2260.78 28.1478H1993.03V51.0322H2061.68V1749.97H1998.52V1772.85L1999.44 1772.17ZM1276.29 1769.88H1541.52V1747H1471.04L1280.41 29.0632H1176.74C1167.36 118.999 1007.4 1653.86 1007.4 1674.91C1006.79 1693.74 999.093 1711.64 985.858 1725.05C972.623 1738.45 954.819 1746.37 936 1747.22H922.499V1770.11H1107.86V1747.22H1098.02C1088.65 1746.84 1079.46 1744.53 1071.01 1740.46C1062.56 1736.38 1055.04 1730.61 1048.9 1723.51C1042.77 1716.42 1038.16 1708.14 1035.35 1699.19C1032.54 1690.24 1031.6 1680.81 1032.57 1671.48L1096.65 1051.54H1269.2L1343.8 1747.22H1275.15V1770.11L1276.29 1769.88ZM2193.96 1028.2H2189.61V52.863H2262.61C2347.51 52.863 2360.78 165.683 2360.78 167.285V926.132C2360.78 1025.45 2285.95 1027.74 2285.26 1027.74H2193.73L2193.96 1028.2ZM1268.74 1023.85H1101V1019.04L1183.84 238.227L1268.74 1023.85Z" fill="#111827"/>
</svg>
