<svg width="2500" height="1025" viewBox="0 0 2500 1025" fill="none" xmlns="http://www.w3.org/2000/svg">
<path d="M2205.69 62.5653C2211.96 62.1243 2217.52 60.8366 2222.42 58.6935C2227.28 56.5768 2231.21 53.3136 2234.08 48.8422C2237 44.4148 2238.46 38.2059 2238.46 30.286C2238.46 23.5921 2237.13 18.2386 2234.57 14.2434C2232.05 10.3665 2228.57 7.20677 2224.47 5.07119C2220.01 2.83736 2215.21 1.37893 2210.26 0.758474C2207.96 0.405695 2205.68 0.185209 2203.41 0H2153.25V63.2355H2185.77C2192.8 63.2355 2199.43 63.0239 2205.69 62.5653ZM2087.97 178.7C2100.65 191.832 2115.62 202.124 2132.88 209.621C2150.12 217.109 2168.83 220.831 2188.96 220.831C2208.84 220.831 2227.29 217.1 2244.4 209.621C2261.19 202.356 2276.37 191.848 2289.08 178.7C2301.74 165.585 2311.68 150.072 2318.87 132.213C2326.03 114.327 2329.64 94.8621 2329.64 73.7748C2329.64 53.3401 2326.03 34.246 2318.87 16.5277C2316.52 10.8592 2313.84 5.33965 2310.82 0L2262.08 0C2267.05 8.44904 2269.61 18.9618 2269.61 31.6442C2269.61 49.6624 2264.57 62.8916 2254.47 71.2524C2244.4 79.6574 2231.91 84.6316 2216.91 86.1661L2274.2 174.572H2240.73L2186.24 88.4504H2153.25V174.572H2122.13V0H2066.23C2063.22 5.34211 2060.54 10.8647 2058.21 16.5365C2051.05 34.246 2047.44 53.3401 2047.44 73.7836C2047.44 94.8798 2051.04 114.344 2058.21 132.221C2065.37 150.072 2075.31 165.585 2087.97 178.7ZM880.861 342.618C837.443 342.618 814.442 376.529 813.957 411.243H953.525C953.525 370.32 927.631 342.618 880.861 342.618ZM2343.82 0C2344.87 2.16077 2346.04 4.22452 2347.02 6.44703C2356.16 27.2257 2360.77 49.6712 2360.77 73.7748C2360.77 98.5663 2356.17 121.365 2347.02 142.311C2337.87 163.169 2325.52 181.355 2309.91 196.771C2294.29 212.231 2275.77 224.456 2255.41 232.746C2234.65 241.292 2212.5 245.578 2188.95 245.578C2165.44 245.578 2143.22 241.3 2122.33 232.746C2101.82 224.471 2083.14 212.248 2067.34 196.771C2051.62 181.346 2039.18 163.16 2030.04 142.311C2020.87 121.365 2016.27 98.5663 2016.27 73.7748C2016.27 49.6712 2020.86 27.2257 2030.04 6.44703C2031.02 4.22452 2032.19 2.16077 2033.24 0H0L240.392 1024.72C745.103 700.133 1230.17 1012.06 1249.68 1023.96H1249.74C1249.78 1023.92 1249.83 1023.89 1249.89 1023.87H1250.13C1250.17 1023.9 1250.24 1023.92 1250.27 1023.96H1250.35C1269.83 1012.06 1754.92 700.133 2259.63 1024.72L2500 0H2343.82ZM660.587 622.116H332V279.868H479.726V528.991H660.587V622.116ZM1102.54 480.123H814.213C814.213 524.67 851.925 558.272 902.187 558.272C932.076 558.272 959.302 548.385 978.537 521.636H1093.52C1055.94 607.987 983.044 632.541 883.666 632.541C754.426 632.541 663.047 562.558 663.047 451.706C663.047 333.314 753.059 270.854 883.666 270.854C1029.79 270.854 1103.05 365.54 1103.05 456.681C1103.04 464.283 1103.63 471.876 1102.54 480.123ZM1370 622.663H1245.5L1059.62 279.586H1227.37L1334.03 488.131L1336.97 494.419L1339.64 488.131L1439.4 279.577H1540.12L1370 622.663ZM1698.29 621.993H1555.81V278.942H1698.29V621.993ZM1805.34 321.937L1762.41 368.627H1744.56L1764.24 317.721H1724.91V249.838H1805.34V321.937ZM1992.33 631.765C1840.07 631.765 1812.36 543.799 1812.36 522.006H1922.62C1922.62 534.812 1939.96 550.167 1954.6 556.411C1966.65 561.57 1980.07 562.585 1992.63 562.585C2023.68 562.585 2049.15 555.053 2049.15 537.026C2049.15 515.074 2023.07 510.206 1994.3 506.078C1916.01 494.789 1806.29 481.64 1806.29 394.062C1806.29 312.377 1895.48 270.802 1990.16 270.802C2141.74 270.802 2181.93 354.772 2181.93 379.087H2069.87C2069.87 371.829 2064.35 357.894 2049.07 349.921C2037.74 344.003 2021.08 339.214 2004.97 339.214C1963.11 339.214 1939.55 347.928 1939.55 367.11C1939.55 382.782 1960.79 390.552 1991.28 395.782C2070.85 409.444 2193.06 414.171 2193.06 511.017C2193.05 560.212 2150.45 631.765 1992.33 631.765Z" fill="#111827"/>
</svg>
