<svg width="3944" height="760" viewBox="0 0 3944 760" fill="none" xmlns="http://www.w3.org/2000/svg">
<path fill-rule="evenodd" clip-rule="evenodd" d="M412.088 514.394L133.109 524.329L398.003 539.049L412.088 514.394ZM378.717 573.017L99.076 582.965L364.956 597.738L378.717 573.017ZM345.346 632.133L66.055 641.938L331.611 656.698L345.346 632.133ZM312.662 690.951L33.021 700.912L298.266 715.646L312.662 690.951ZM654.506 218.489L298.434 231.16L655.518 251.004L654.506 218.489ZM652.249 160.306L332.376 171.525L653.261 189.929L652.249 160.306ZM649.967 104.186L364.969 113.563L651.342 129.464L649.967 104.186ZM648.047 46.5744L398.237 54.9269L649.033 69.7384L648.047 46.5744ZM646.426 0H429.157L646.75 11.5431L646.426 0ZM278.967 749.743L0 759.847H273.273L278.967 749.743Z" fill="#111827"/>
<path fill-rule="evenodd" clip-rule="evenodd" d="M1224.38 1.88037H822.348L810.948 22.0613L1012.13 32.7354C1014.5 32.7354 1014.5 36.0816 1011.12 36.0816L799.223 43.1631L778.783 78.9337L978.595 90.7362C981.279 91.0734 980.618 94.7568 978.271 94.7568L766.02 101.735L746.267 135.988L945.755 147.064C950.113 147.401 950.113 151.097 945.755 151.097L733.855 158.529L713.739 194.352L912.566 205.752C916.924 206.089 916.599 210.11 912.566 210.11L700.666 217.658L680.199 253.04L879.35 264.103C882.359 264.44 882.722 268.137 878.689 268.137L268.111 288.59L847.509 320.781C851.18 320.781 850.856 325.476 846.822 325.476L235.259 347.278L814.657 379.456C817.342 379.456 818.003 383.814 813.97 383.814L201.395 405.94L780.793 438.131C783.153 438.469 785.475 442.826 780.469 443.164L168.866 464.927L748.252 497.105C749.925 497.442 751.598 501.8 747.59 501.8L439.779 512.772L440.791 540.554L715.062 555.793C717.059 556.13 718.071 560.151 714.375 560.151L441.802 569.839L443.138 600.915L681.211 614.144C683.546 614.481 684.557 619.176 680.524 619.176L444.474 627.464L445.499 661.561L648.359 672.832C650.693 673.156 651.368 677.514 647.347 677.514L446.51 684.686L447.846 722.195L615.493 731.507C617.854 731.845 617.854 735.878 614.495 735.878L448.521 741.883L449.195 758.005H990.371C1133.87 758.005 1262.61 653.39 1286.76 570.228C1310.92 487.079 1310.92 411.971 1195.57 374.424C1259.96 359.664 1371.93 287.046 1394.07 186.648C1414.15 95.4312 1380.63 2.21758 1224.38 1.88037ZM952.175 584.223H785.877L879.752 417.911H1003.15C1130.56 417.911 1068.85 584.223 952.175 584.223ZM1167.42 227.438C1162.05 247.554 1121.79 298.525 1070.86 298.525H947.467L1026.58 159.048H1089.63C1170.08 161.733 1172.77 207.334 1167.42 227.438Z" fill="#111827"/>
<path fill-rule="evenodd" clip-rule="evenodd" d="M3943.49 412.604C3943.49 348.157 3889.91 294.177 3825.46 294.177C3759.34 294.177 3705.36 349.013 3705.36 416.378C3705.3 432.224 3708.37 447.926 3714.4 462.579C3720.43 477.232 3729.31 490.544 3740.52 501.749C3751.72 512.953 3765.04 521.827 3779.69 527.859C3794.34 533.891 3810.04 536.962 3825.89 536.893C3874.83 536.893 3921.28 503.418 3935.1 457.803H3874C3861.86 477.05 3845.98 485.831 3824.19 485.831C3796.58 485.831 3771.91 466.999 3763.95 440.216H3940.53C3942.64 427.259 3943.49 420.969 3943.49 412.604ZM3762.29 396.469C3770.24 365.082 3795.35 344.992 3826.31 344.992C3857.29 344.992 3881.56 364.667 3889.08 396.469H3762.29ZM3150.18 305.344V324.137C3132.62 305.305 3107.17 294.592 3079.96 294.592C3019.7 294.592 2968.33 346.056 2968.33 413.019C2968.33 476.194 3013.78 532.859 3081.15 532.859C3110.87 532.859 3133.46 525.998 3154.8 501.732V531.446H3205.87V305.344H3150.18ZM3087.81 484.936C3069.2 484.936 3051.35 477.543 3038.19 464.383C3025.03 451.223 3017.63 433.374 3017.63 414.763C3017.63 396.152 3025.03 378.303 3038.19 365.143C3051.35 351.983 3069.2 344.59 3087.81 344.59C3106.42 344.59 3124.27 351.983 3137.43 365.143C3150.59 378.303 3157.98 396.152 3157.98 414.763C3157.98 433.374 3150.59 451.223 3137.43 464.383C3124.27 477.543 3106.42 484.936 3087.81 484.936ZM1628.32 294.164C1605.31 294.164 1587.74 302.114 1568.48 321.789V299.611H1517V531.446H1572.67V422.214C1572.67 392.513 1575.17 345.213 1616.18 345.213C1654.67 345.213 1658.86 389.569 1658.86 418.025V531.433H1714.52V407.143C1714.52 374.498 1712.01 359.026 1703.22 340.608C1690.25 312.996 1659.71 294.164 1628.32 294.164ZM1974.15 412.604C1974.15 348.157 1920.58 294.177 1856.13 294.177C1790.01 294.177 1736.03 349.013 1736.03 416.378C1735.97 432.222 1739.04 447.923 1745.07 462.574C1751.11 477.225 1759.98 490.536 1771.19 501.74C1782.39 512.944 1795.7 521.819 1810.35 527.852C1825 533.885 1840.7 536.958 1856.55 536.893C1905.51 536.893 1951.95 503.418 1965.77 457.803H1904.68C1892.54 477.05 1876.64 485.831 1854.88 485.831C1827.26 485.831 1802.57 466.999 1794.62 440.216H1971.2C1973.32 427.259 1974.15 420.969 1974.15 412.604ZM1792.96 396.469C1800.91 365.082 1826.02 344.992 1856.99 344.992C1887.96 344.992 1912.23 364.667 1919.76 396.469H1792.96ZM2889.88 531.251H2945.53V222H2889.88V531.251ZM3352.7 294.164C3329.68 294.164 3312.09 302.114 3292.85 321.789V299.611H3241.37V531.446H3297.05V422.214C3297.05 392.513 3299.55 345.213 3340.56 345.213C3379.04 345.213 3383.25 389.569 3383.25 418.025V531.433H3438.9V407.143C3438.9 374.498 3436.4 359.026 3427.6 340.608C3414.63 312.996 3384.09 294.164 3352.7 294.164ZM3577.83 345.226C3603.34 345.226 3617.99 353.604 3631.81 377.028H3694.56C3677.41 327.237 3633.48 294.164 3579.91 294.164C3512.11 294.164 3457.7 348.144 3457.7 414.692C3457.7 481.642 3512.53 536.88 3579.91 536.88C3597.09 536.79 3614.07 533.136 3629.77 526.148C3645.47 519.161 3659.55 508.992 3671.12 496.285C3682.85 483.315 3687.04 475.779 3694.56 455.287H3631.81C3618.82 475.364 3602.1 485.818 3581.18 485.818C3542.24 485.818 3513.38 455.689 3513.38 415.509C3513.38 374.939 3541 345.226 3577.83 345.226ZM2186.88 441.059L2147.46 299.624H2102.68L2062.83 441.059L2015.71 299.624H1966.61L2044.01 531.446H2079.67L2124.87 381.23L2168.8 531.446H2206.21L2280.44 299.624H2234.42L2186.88 441.059ZM2485.06 294.41C2457.87 294.41 2432.42 305.123 2414.84 323.942V222.013H2359.18V531.251H2410.23V501.55C2431.58 525.817 2454.17 532.665 2483.88 532.665C2551.26 532.665 2596.71 476.013 2596.71 412.824C2596.72 345.874 2545.33 294.41 2485.06 294.41ZM2477.22 484.936C2458.61 484.936 2440.76 477.543 2427.6 464.383C2414.44 451.223 2407.04 433.374 2407.04 414.763C2407.04 396.152 2414.44 378.303 2427.6 365.143C2440.76 351.983 2458.61 344.59 2477.22 344.59C2495.83 344.59 2513.68 351.983 2526.84 365.143C2540 378.303 2547.39 396.152 2547.39 414.763C2547.39 433.374 2540 451.223 2526.84 464.383C2513.68 477.543 2495.83 484.936 2477.22 484.936ZM2797.03 305.344V324.137C2779.45 305.305 2754.02 294.592 2726.81 294.592C2666.55 294.592 2615.15 346.056 2615.15 413.019C2615.15 476.194 2660.61 532.859 2727.97 532.859C2757.69 532.859 2780.28 525.998 2801.63 501.732V531.446H2852.68V305.344H2797.03ZM2734.67 484.936C2716.06 484.936 2698.21 477.543 2685.05 464.383C2671.89 451.223 2664.49 433.374 2664.49 414.763C2664.49 396.152 2671.89 378.303 2685.05 365.143C2698.21 351.983 2716.06 344.59 2734.67 344.59C2753.28 344.59 2771.13 351.983 2784.29 365.143C2797.45 378.303 2804.84 396.152 2804.84 414.763C2804.84 433.374 2797.45 451.223 2784.29 464.383C2771.13 477.543 2753.28 484.936 2734.67 484.936Z" fill="#111827"/>
</svg>
