<svg width="149" height="127" viewBox="0 0 149 127" fill="none" xmlns="http://www.w3.org/2000/svg">
<g clip-path="url(#clip0_1_2)">
<path d="M148.39 27.38L121.41 0.39C121.16 0.14 120.81 0 120.46 0H28.4199C27.9999 0 27.6199 0.21 27.3699 0.52L6.06987 21.82L0.509872 27.38C-0.280128 28.25 -0.050128 28.65 0.509872 29.28L21.7799 50.55C22.0299 50.8 22.3799 50.95 22.7299 50.95C23.0799 50.95 23.4299 50.81 23.6799 50.55L25.2099 49.02L27.0699 47.16V124.8C27.0699 125.55 27.6699 126.15 28.4199 126.15H120.46C121.2 126.15 121.81 125.55 121.81 124.8V47.14L125.23 50.55C125.48 50.8 125.82 50.95 126.18 50.95C126.54 50.95 126.88 50.81 127.13 50.55L148.4 29.28C148.69 28.94 149.19 28.17 148.4 27.38H148.39ZM70.0999 2.69H78.7799V9.42H70.0999V2.69ZM67.3999 2.69V10.77C67.3999 11.51 67.9999 12.12 68.7499 12.12H80.1199C80.8699 12.12 81.4699 11.52 81.4699 10.77V2.69H98.1999C97.4999 15.19 87.1199 25.14 74.4499 25.14C61.7799 25.14 51.3999 15.19 50.6999 2.69H67.4099H67.3999ZM22.7299 47.7L3.36987 28.33L7.01987 24.68L26.3899 44.04L22.7399 47.69L22.7299 47.7ZM120.61 28.51C119.87 28.51 119.26 29.11 119.26 29.86C119.26 29.86 119.1 43.67 119.1 43.89V123.47H29.7599V43.91C29.7599 43.71 29.6299 29.85 29.6299 29.85C29.6299 29.11 29.0299 28.5 28.2799 28.5C27.5299 28.5 26.9299 29.1 26.9299 29.85V40.79L8.91987 22.77L28.9999 2.69H47.9899C48.6899 16.67 60.2899 27.83 74.4499 27.83C88.6099 27.83 100.2 16.67 100.9 2.69H119.89L139.97 22.77L121.95 40.79V29.85C121.95 29.11 121.35 28.5 120.6 28.5L120.61 28.51ZM126.17 47.7L122.52 44.05L141.89 24.69L145.54 28.34L126.18 47.71L126.17 47.7Z" fill="#3F3E3E"/>
<path d="M58.7 37.2H39.92C39.18 37.2 38.57 37.8 38.57 38.55V51.27C38.57 57.16 47.71 61.42 48.75 61.89C48.93 61.97 49.11 62.01 49.3 62.01C49.49 62.01 49.67 61.97 49.85 61.89C50.89 61.42 60.04 57.16 60.04 51.27V38.55C60.04 37.81 59.44 37.2 58.69 37.2H58.7ZM57.35 51.26C57.35 54.54 51.98 57.85 49.31 59.16C46.74 57.89 41.27 54.52 41.27 51.26V39.89H57.35V51.26Z" fill="#3F3E3E"/>
</g>
<defs>
<clipPath id="clip0_1_2">
<rect width="148.81" height="126.16" fill="white"/>
</clipPath>
</defs>
</svg>
