<svg width="2428" height="728" viewBox="0 0 2428 728" fill="none" xmlns="http://www.w3.org/2000/svg">
<path fill-rule="evenodd" clip-rule="evenodd" d="M931.7 627.481C908.082 627.481 896.967 610.815 894.879 584.408H1008.12C1008.12 523.269 986.575 482.985 928.925 482.985C878.9 482.985 849.031 516.33 849.031 576.082C849.031 631.657 882.376 663.614 931 663.614C967.121 663.614 989.351 648.323 1003.25 619.154L960.869 608.726C951.142 623.317 945.591 627.481 931.7 627.481ZM929.612 519.624C949.067 519.624 960.182 532.827 961.57 553.657H894.866C897.655 532.127 909.457 519.624 929.612 519.624ZM781.212 658.05H826.36V488.536H781.212V658.05ZM781.212 468.458H826.36V426.774H781.212V468.458ZM1076.47 506.59V488.523H1034.1V658.024H1079.24V571.879C1079.24 541.323 1092.45 530.195 1132.04 530.195V483.646C1102.88 483.659 1092.45 487.835 1076.47 506.59ZM1192.37 506.59V488.523H1149.99V658.024H1195.14V571.879C1195.14 541.323 1208.35 530.195 1247.94 530.195V483.646C1218.79 483.659 1208.36 487.835 1192.37 506.59ZM1338.95 627.481C1315.35 627.481 1304.22 610.815 1302.14 584.408H1415.37C1415.37 523.269 1393.84 482.985 1336.19 482.985C1286.16 482.985 1256.27 516.33 1256.27 576.082C1256.27 631.657 1289.63 663.614 1338.26 663.614C1374.38 663.614 1396.6 648.323 1410.5 619.154L1368.12 608.726C1358.41 623.317 1352.85 627.481 1338.95 627.481ZM1336.88 519.624C1356.33 519.624 1367.42 532.827 1368.82 553.657H1302.14C1304.91 532.127 1316.71 519.624 1336.88 519.624ZM684.004 483.84C660.256 484.061 647.87 491.48 636.768 504.67V489.392H594.382V727.672H638.843V645.003C649.958 657.506 660.386 663.757 681.915 663.757C729.852 663.757 756.946 629.011 756.946 572.748C756.946 518.574 732.627 483.84 684.004 483.84ZM674.964 624.018C652.033 624.018 637.442 606.651 637.442 574.006C637.442 539.961 650.425 532.127 672.875 523.995C697.194 523.995 711.084 542.062 711.084 574.006C711.084 608.039 696.506 624.018 674.964 624.018ZM1618.81 521.894C1637.58 521.894 1644.52 533.696 1647.99 548.988H1693.84C1688.29 504.527 1656.32 483.685 1616.74 483.685C1565.31 483.685 1538.23 518.431 1538.23 576.782C1538.23 630.97 1567.41 663.614 1616.05 663.614C1656.32 663.614 1686.9 639.996 1692.45 596.236H1648.68C1644.53 614.991 1636.19 626.106 1618.14 626.106C1596.61 626.106 1584.09 608.739 1584.09 574.707C1584.08 541.348 1597.28 521.894 1618.81 521.894ZM2199.4 658.05H2244.58V488.536H2199.4V658.05ZM2199.4 468.458H2244.58V426.774H2199.4V468.458ZM2366.8 484.359C2345.25 484.359 2332.05 490.611 2317.45 504.514V488.536H2273.71V658.038H2318.84V571.892C2318.84 541.335 2327.18 521.181 2354.28 521.181C2375.12 521.181 2382.07 535.071 2382.07 556.601V658.024H2427.23V552.425C2427.24 512.154 2412.65 484.359 2366.8 484.359ZM1937.08 506.59V488.523H1894.69V658.024H1939.83V571.879C1939.83 541.323 1953.03 530.195 1992.64 530.195V483.646C1963.47 483.659 1953.03 487.835 1937.08 506.59ZM1857.79 612.163V546.913C1857.79 504.527 1842.51 484.385 1785.55 484.385C1740.39 484.385 1718.17 505.915 1716.07 543.45H1757.77C1759.85 530.233 1766.78 519.819 1787.64 519.819C1805.71 519.819 1814.03 525.383 1814.03 537.886C1814.03 567.768 1710.53 537.886 1710.53 612.916C1710.53 645.574 1730.68 663.627 1766.8 663.627C1786.25 663.627 1799.46 657.389 1816.82 644.886C1818.21 652.525 1818.9 653.9 1821.69 658.089H1867.53V650.437C1859.18 643.472 1857.43 637.675 1857.79 612.163ZM1813.99 585.939C1813.99 609.556 1806.37 628.324 1777.87 628.324C1764.67 628.324 1754.94 621.372 1754.94 609.569C1754.94 597.067 1762.6 590.115 1779.26 585.951C1804.27 579.713 1804.27 580.4 1813.99 575.537V585.939ZM2121.87 427.266V504.372C2106.59 490.481 2094.08 484.23 2075.34 484.23C2029.49 484.23 2003.07 523.139 2003.07 574.538C2003.07 625.25 2028.1 663.459 2074.63 663.459C2095.48 663.459 2108.68 656.507 2124.66 642.629V657.908H2167.04V427.266H2121.87ZM2085.75 624.705C2062.14 624.705 2048.23 603.876 2048.23 573.993C2048.23 542.736 2062.82 523.982 2087.14 523.982C2109.35 523.982 2122.57 542.049 2122.57 573.993C2122.58 605.251 2110.76 624.705 2085.75 624.705ZM560.713 641.54C339.099 641.54 163.332 510.934 163.332 360.861C163.332 262.226 232.798 191.359 321.032 191.359C384.947 191.359 432.183 227.48 432.183 274.729C432.183 314.339 400.925 344.895 363.404 344.895C340.473 344.895 324.495 335.168 318.243 322.665C323.107 323.353 325.882 324.053 328.671 324.053C350.201 324.053 364.104 307.374 364.104 287.232C364.104 265.689 348.813 249.71 323.12 249.71C285.598 249.71 253.641 284.443 253.641 328.904C253.641 383.091 305.053 427.552 375.907 427.552C495.397 427.552 589.882 324.04 589.882 205.25C589.882 145.498 565.564 87.1473 523.191 48.9384C482.894 12.8176 435.646 0.301758 362.016 0.301758H0.756348V656.805H561.647C567.003 656.805 570.622 654.964 570.44 649.14C570.311 644.99 565.577 641.54 560.713 641.54ZM16.7351 640.853V16.2935H356.465C426.632 16.2935 466.228 21.8575 509.301 59.3661C550.298 95.4998 573.916 151.075 573.916 206.651C573.916 315.726 484.295 412.974 377.308 412.974C321.732 412.974 271.708 377.553 271.708 328.917C271.708 292.796 296.713 266.389 320.344 266.389C339.099 266.389 347.438 276.117 347.438 290.007C347.438 303.211 338.398 312.238 319.644 312.238C313.393 312.238 308.542 311.537 300.189 310.149C305.053 338.631 328.671 358.086 363.417 358.086C409.265 358.086 448.174 321.965 448.174 275.416C448.174 217.753 393.987 176.768 326.596 176.768C212.656 176.768 148.041 264.989 148.041 362.949C148.041 486.603 264.756 615.834 441.21 640.84L16.7351 640.853Z" fill="#111827"/>
</svg>
