<svg width="222" height="85" viewBox="0 0 222 85" fill="none" xmlns="http://www.w3.org/2000/svg">
<path d="M28.27 42.09C28.63 42.33 28.99 42.57 29.35 42.69C32.11 44.13 34.26 46.05 36.54 47.96C39.77 50.83 42.05 54.55 43.25 59.1C43.97 62.21 43.49 65.69 41.45 69.28C40.85 70.48 40.13 71.8 39.17 72.87C38.81 73.35 38.21 74.07 37.61 74.55C35.33 76.71 32.82 78.14 30.06 79.22C28.74 79.94 27.31 80.06 25.99 79.94C24.91 79.94 23.95 80.06 22.88 80.66C21.92 81.14 21.08 81.38 20 81.74C17.48 82.34 15.33 82.46 13.17 82.1C9.94 81.62 6.82 80.66 4.79 78.51C2.99 76.59 2.51 74.08 3.59 70.72C4.43 68.68 5.51 66.65 7.06 64.61C8.38 62.69 9.94 60.78 11.85 59.1C12.21 58.86 12.45 58.38 12.69 58.02C13.65 56.22 14.13 55.86 15.92 56.1C16.64 55.86 17.12 54.78 18.08 55.14C17.6 55.38 17.24 55.62 16.52 55.98C17.12 56.1 17.48 56.22 17.72 56.22C17.72 56.82 17.72 57.3 17.84 57.9C17.96 58.26 17.84 58.62 17.48 59.1C16.76 60.06 16.16 61.02 15.32 62.1C14.12 63.66 13.28 65.09 13.04 66.89C12.8 67.97 12.8 68.93 12.68 70.12C12.56 70.96 12.92 71.56 13.76 71.8C14.72 72.16 15.92 72.28 17.11 72.04C19.27 71.68 21.54 71.2 23.7 70.24C25.86 69.28 28.13 68.44 30.29 67.36C31.85 66.64 33.52 65.68 34.96 64.37C36.04 63.53 36.4 62.57 36.04 61.85C35.2 59.09 34.12 56.7 31.85 54.9C28.14 51.9 23.82 49.27 19.51 46.75C16.87 45.19 14.48 43.52 12.2 41.6C9.56 39.56 7.65 36.93 6.21 34.17C3.45 29.62 5.97 23.39 9.8 18.72C13.27 14.41 17.95 11.53 22.74 8.9C24.18 8.3 25.62 7.94 26.93 7.34C34.24 4.7 41.06 4.47 47.65 4.94C49.69 5.18 51.6 5.54 53.64 5.78C55.8 6.02 57.83 6.5 59.39 7.7C59.99 8.18 60.35 8.66 59.99 9.62C59.87 9.86 59.87 10.22 59.87 10.46C59.75 11.06 59.75 11.66 59.51 12.26C58.55 14.3 57.83 16.33 57.71 18.37C57.59 19.21 56.99 20.41 56.39 21.36C55.91 22.32 55.19 23.04 54.71 23.88C54.23 24.72 53.63 25.32 52.79 25.8C51.47 26.4 50.39 27 49.08 27.36C48.36 27.72 47.64 27.72 47.16 27.36C45.36 26.64 43.45 26.28 41.53 26.04C37.7 25.56 33.86 24.96 29.67 25.08C28.47 25.2 27.15 25.32 25.96 25.68C24.52 25.92 23.21 26.28 21.89 26.52C13.27 28.68 18.3 34.9 22.61 38.02C24.53 39.22 26.44 40.66 28.24 42.09H28.27Z" fill="#F3F4F6"/>
<path d="M70.8 55.86C70.68 55.74 70.32 55.74 70.2 56.1C70.08 56.1 70.08 56.22 70.08 56.34C69.6 57.54 69 58.26 67.92 58.02C67.32 58.62 67.08 59.22 66.6 59.7C66.12 59.94 65.52 60.42 65.4 61.26C65.4 61.5 65.28 61.62 65.16 61.86C64.56 62.7 63.96 63.3 63.48 64.02C63 65.22 62.16 65.94 61.32 66.66C60.96 67.14 60.36 67.5 60 68.34C60 68.46 59.76 68.82 59.4 68.82C58.8 68.94 58.2 69.42 57.6 69.9C56.28 70.62 54.97 71.22 53.53 71.34C52.21 71.34 51.01 71.22 49.82 70.62C47.9 69.54 47.18 67.51 46.94 64.87C46.94 64.27 46.94 63.67 47.18 63.07C47.42 59.36 48.14 55.64 49.1 51.93C49.7 49.89 50.42 48.1 51.14 46.3C52.7 43.07 54.01 39.59 55.57 36.36C55.57 36 55.69 35.88 55.81 35.52C56.53 32.76 57.97 30.13 59.4 27.61C59.88 26.89 60.12 26.17 60.6 25.21C61.2 25.09 61.8 25.09 62.28 25.57C63.6 26.41 64.92 27.37 66.35 28.21C66.59 28.33 66.95 28.57 66.95 28.81C67.79 30.61 68.87 32.28 69.35 34.32C69.59 35.52 69.71 36.6 69.95 37.79C70.19 39.11 70.07 40.55 69.47 41.74C68.99 42.7 68.75 43.78 68.27 44.73C68.15 45.33 67.91 45.93 67.79 46.53C67.07 48.93 66.35 51.32 65.27 53.72C65.27 53.72 65.15 53.84 65.15 53.96C65.15 53.96 65.15 54.08 64.91 54.32C64.79 55.16 64.55 56.12 64.07 57.08C64.31 56.96 64.55 56.96 64.67 56.84C65.87 55.52 67.19 53.97 68.38 52.53C70.54 50.13 72.45 47.74 74.49 45.34C75.33 44.38 76.05 43.66 76.77 42.58C79.05 39.47 81.56 36.71 84.08 33.96C84.56 33.48 85.04 33.12 85.4 33C86.48 32.52 87.56 32.4 88.39 32.52C88.87 32.76 89.23 32.88 89.47 33.12C90.43 34.08 91.27 35.16 92.22 35.99C92.82 36.47 93.18 37.19 93.54 38.15C93.78 38.99 94.02 39.71 94.14 40.67C94.38 41.87 94.38 43.07 94.02 44.38C93.18 47.14 92.46 49.65 91.39 52.17C91.15 53.25 90.67 54.33 90.43 55.64C90.79 55.52 91.15 55.28 91.27 55.16C93.67 53.84 95.82 51.93 97.86 49.77C99.78 47.97 101.81 46.3 103.97 45.1C104.33 44.98 104.57 44.74 104.93 44.38C105.65 43.78 106.25 43.9 106.73 44.38C107.33 44.86 107.57 45.7 108.41 46.06C109.01 46.3 109.37 46.9 109.85 47.5C109.73 48.58 109.73 49.54 109.85 50.5C109.85 51.34 109.61 52.18 109.25 53.13C108.53 53.49 109.01 54.45 108.53 55.05C108.41 56.49 108.17 57.92 107.93 59.24C107.81 60.56 107.81 61.75 107.93 63.07C107.93 63.91 108.17 64.27 108.77 64.51C110.57 64.87 116.8 60.44 117.99 58.88C120.15 56.48 121.94 53.73 123.62 50.85C123.74 50.25 123.98 49.65 124.34 49.29C124.58 49.65 124.7 49.65 124.58 49.77C124.22 51.57 124.82 50.49 124.58 52.53C124.58 52.05 123.98 54.57 123.62 54.33C123.38 54.33 123.38 54.69 123.14 54.93C122.42 56.25 121.7 57.44 121.1 58.88C121.1 59.36 120.74 59.72 120.62 59.96C119.54 60.68 118.82 61.52 117.99 62.36C117.99 62.72 117.63 62.84 117.39 62.96C116.79 64.28 111.76 67.87 110.44 67.87C109.84 67.87 106.97 67.63 106.37 67.15C105.17 66.07 103.26 64.75 102.54 63.08C101.94 61.64 101.94 59.85 102.42 58.05C103.02 55.06 103.74 52.18 104.82 49.31C104.94 48.95 105.06 48.47 105.06 48.11C105.18 47.87 105.06 47.75 105.06 47.39C104.34 47.51 103.86 48.35 103.26 48.47C102.66 48.71 102.06 48.95 101.58 49.31C101.5 50.11 101.22 50.87 100.74 51.59C100.26 52.07 100.02 52.67 99.54 53.27C98.94 52.91 98.34 53.27 97.74 53.75C96.78 54.59 95.94 55.31 94.86 56.15C94.62 56.39 94.26 56.51 94.02 56.99C92.94 58.31 91.62 59.27 90.19 60.35C90.07 60.59 89.83 60.59 89.59 60.95C88.87 62.39 87.43 63.11 86.36 64.3C86 64.78 85.64 65.26 85.16 65.74C83.24 67.3 81.09 67.9 79.05 67.66C78.09 67.54 77.25 66.94 76.53 66.1C75.69 65.26 75.33 64.18 75.45 62.51C75.45 61.19 75.69 60 76.17 58.68C78.09 52.69 80.96 47.42 84.43 42.39C85.27 40.83 86.35 39.39 87.18 37.72C87.66 37.24 88.02 36.64 87.78 35.92C87.42 35.56 86.94 35.56 86.46 36.04C86.22 36.4 85.86 36.64 85.38 37C84.18 38.2 82.98 39.4 81.79 40.35C81.07 41.19 80.47 41.91 79.99 42.99C79.39 44.43 78.67 45.63 77.71 46.7C76.63 47.78 75.67 48.74 74.95 49.93C74.23 50.89 73.75 51.97 73.15 52.92C72.91 53.52 72.43 54.36 72.07 54.96C71.83 55.32 71.47 55.8 71.23 56.16C71.11 56.16 70.87 55.92 70.75 55.92L70.8 55.86Z" fill="#F3F4F6"/>
<path d="M124.1 39.93L124.22 39.81C124.58 39.33 124.82 39.21 125.18 38.97C126.5 38.73 129.49 36.57 130.69 37.29C131.05 37.77 132.25 38.37 132.73 38.85C133.21 39.45 133.33 40.29 132.97 41.49C132.25 43.05 131.41 44.49 130.45 46.4C130.21 47.12 129.97 47.72 129.85 48.2C129.37 49.28 128.89 50.72 128.29 51.79C127.81 53.23 129.97 48.68 129.73 49.87C129.73 50.23 129.49 50.59 129.37 50.83C128.41 53.23 128.41 52.75 128.29 54.9C128.29 56.1 127.81 62.21 127.93 63.28C128.05 64.12 128.53 64.6 128.89 65.08C129.37 65.32 129.97 65.8 130.69 66.04C131.29 66.52 131.89 66.28 132.61 66.16C142.55 62.57 138.96 61.25 144.71 55.14C145.79 53.58 147.11 52.15 147.7 50.23C147.7 50.15 147.82 49.91 148.06 49.51C148.66 50.71 147.34 52.38 149.02 52.74C146.5 57.29 144.71 63.88 140.63 66.27C139.43 67.83 131.29 75.01 126.02 72.98C124.34 73.58 122.79 71.9 120.99 71.18C119.79 70.7 118.59 69.74 117.52 68.55C116.92 66.99 116.32 65.32 116.32 63.76C116.08 63.04 116.08 62.2 116.08 61.6C116.44 60.16 116.2 57.41 116.68 56.45C116.8 55.85 117.04 55.25 117.04 54.53C117.28 54.41 117.04 53.81 117.88 53.69C118 53.69 118.12 53.21 118.24 53.09C118.84 52.25 118.96 51.53 119.56 50.69C119.56 50.69 117.04 53.21 118.48 50.81C119.44 48.41 121.59 45.78 122.31 44.1C122.31 43.86 122.55 43.5 122.55 43.5C122.91 42.78 123.27 42.3 123.03 41.46C122.91 40.98 123.03 40.5 123.39 39.78C123.63 39.9 123.75 40.02 124.11 39.9L124.1 39.93ZM135.12 26.88C134.88 27.24 134.64 27.48 134.52 27.96C134.52 28.08 134.52 28.32 134.28 28.56C133.92 28.92 133.56 29.4 133.08 30C132.84 30.36 131.88 30.84 131.28 30.96C131.04 30.84 130.68 31.08 130.44 31.32C129.72 31.8 129.24 31.68 128.76 31.44C128.4 31.2 128.16 31.2 127.8 31.2C127.32 31.2 126.96 31.2 126.48 31.08C126.6 30.96 126.72 30.72 126.84 30.6C126.84 30.24 127.08 29.88 127.2 29.4C127.44 28.8 127.68 28.44 128.04 27.84C128.04 27.6 128.4 27.36 128.4 27.24C128.4 26.52 129 25.92 129.36 25.2C129.6 24.84 129.84 24.48 130.08 24.12C130.32 23.88 130.56 23.64 130.8 23.64C131.04 23.52 131.28 23.52 131.4 23.64C131.4 23.88 131.64 23.88 131.88 23.76C132.12 23.64 132.24 23.52 132.36 23.64C132.84 23.88 133.44 24 133.92 24.12C134.76 24.48 135.36 25.08 135.84 25.92C135.48 26.28 135.36 26.64 135.12 26.88Z" fill="#F3F4F6"/>
<path d="M181.23 55.74C180.63 56.94 178.59 59.57 178.59 60.89C178.47 61.01 178.11 61.37 177.87 61.49C177.51 61.85 177.15 62.33 176.91 62.93C176.67 63.53 176.31 63.77 176.07 64.25C174.39 67.24 173.31 68.92 170.56 71.56C169.84 72.16 163.49 78.27 163.01 78.87C159.54 81.75 154.86 80.43 151.39 80.55C150.43 80.55 149.47 80.43 148.87 80.07C147.79 79.47 145.4 78.51 144.68 77.43C143.6 74.79 140.85 73 140.61 69.28C140.49 68.32 140.01 67.72 139.89 66.76C140.01 62.93 140.61 59.09 141.09 55.14C141.81 52.38 142.41 49.39 142.89 46.64C144.09 41.49 144.45 40.89 146.72 36.22C147.92 33.11 149 32.86 150.19 29.75C151.03 28.07 151.99 26.4 152.94 24.96C153.66 23.16 154.86 21.49 155.93 19.69C158.21 15.74 160.72 12.26 163.36 9.39C165.16 7.59 167.07 5.68 168.87 4.12C169.95 3.28 171.03 2.32 172.1 1.96C172.46 1.72 172.82 1.6 173.18 1.48C174.86 1.36 176.41 1.6 177.61 2.8C178.81 3.88 179.17 5.56 178.81 7.83C178.57 9.27 178.45 10.7 178.09 12.02C177.97 13.1 177.49 14.06 176.89 15.25C176.05 17.29 175.09 19.2 173.78 21.12C172.94 22.68 171.98 24.23 171.14 25.79C169.7 27.94 168.51 30.22 167.07 32.26C164.55 35.61 162.4 39.21 160.12 42.56C156.41 48.91 156.77 49.99 155.45 56.33C154.97 58.85 155.21 60.28 155.09 62.8C155.21 63.52 155.57 68.19 155.69 68.67C156.05 70.35 156.41 70.95 157.13 72.5C157.37 72.98 159.05 73.34 159.65 73.58C160.49 74.18 166.84 69.87 167.68 69.27C169.6 68.19 171.15 66.4 172.83 64.72C174.63 63.04 175.47 61.13 177.02 58.85C179.18 55.98 179.89 53.58 182.17 50.47C183.85 50.23 182.89 52.75 181.21 55.74H181.23ZM162.07 34.18C165.9 28.07 166.5 27.11 169.98 20.52C171.3 18 172.38 15.49 173.69 12.97C174.29 11.17 174.65 9.38 174.89 7.58C175.13 6.98 175.13 6.62 174.53 6.86C173.93 6.98 173.57 7.22 173.21 7.46C171.65 8.06 170.22 9.26 169.14 10.93C168.3 11.89 167.7 12.97 166.74 13.93C165.66 15.25 165.06 16.57 164.58 18.12C163.98 19.32 163.38 20.75 162.78 21.95C161.94 24.46 160.74 26.98 159.55 29.5C159.07 30.7 158.71 32.02 158.23 33.21C156.79 37.28 157.39 35.25 156.07 39.32C155.71 40.28 155.95 43.03 157.51 41.36C159.31 38.72 160.5 36.93 162.06 34.17L162.07 34.18Z" fill="#F3F4F6"/>
<path d="M187.22 50.35C187.22 50.59 186.98 50.83 186.74 50.95C186.62 51.07 186.38 51.19 186.38 51.55C186.26 52.03 186.14 52.15 185.78 52.27C185.54 52.39 185.54 52.51 185.42 53.23C185.66 53.23 185.78 53.23 185.9 53.35V53.47H185.06C185.18 53.11 185.18 52.75 185.18 52.51H184.94C184.82 53.35 184.7 54.19 184.58 55.03C184.82 55.15 184.94 55.27 185.06 55.27C185.18 56.11 185.18 56.83 185.18 57.67C185.18 58.51 185.42 59.23 185.66 59.83C186.02 60.31 186.98 62.94 187.34 63.42C189.02 65.1 191.05 67.25 192.97 67.37C193.57 67.49 197.04 66.89 197.64 66.77C200.51 65.93 203.27 64.37 205.9 62.34C207.94 60.78 209.85 58.99 211.89 57.31C212.01 57.19 212.13 57.07 212.25 56.95C212.97 56.11 213.69 55.39 214.41 54.55C215.73 53.23 216.93 51.91 218 50.36C218.36 49.76 218.72 49.16 219.44 48.92C219.2 50 218.96 50.96 218.48 51.91C218.36 52.27 218.12 52.63 217.88 52.87C217.16 53.71 216.56 54.43 216.08 55.39C215.72 55.87 215.24 56.35 214.88 56.83C214.76 56.95 214.64 57.19 214.4 57.55C214.76 57.43 215 57.31 215.36 57.19C215.24 57.91 214.64 58.03 214.52 58.63C214.64 58.75 214.64 58.87 214.88 58.99C214.52 59.59 214.16 59.95 213.68 60.43C212.96 61.03 212.24 61.75 211.64 62.47C210.56 63.67 209.36 64.63 208.17 65.58C207.57 66.06 207.09 66.54 206.49 66.9C206.01 67.26 205.53 67.5 205.05 67.86C204.33 68.22 203.61 68.58 202.89 69.06C201.69 69.78 200.37 70.38 199.06 70.62C198.7 70.74 198.34 70.86 197.98 70.98C196.54 71.46 195.11 71.7 193.67 71.82C191.99 72.06 184.93 70.74 183.37 70.14C179.18 68.46 178.34 66.43 176.42 64.75C175.7 64.15 175.1 63.19 174.74 62.23C174.14 60.67 174.02 59 173.9 57.2C173.9 53.49 174.86 49.89 176.42 46.54C176.66 46.06 176.74 45.46 176.66 44.74C176.06 45.1 175.7 45.34 175.46 46.06C175.1 47.14 174.62 48.1 174.02 49.17C174.02 48.09 174.5 47.37 174.86 46.53C175.82 44.37 176.9 42.34 178.21 40.42C179.53 38.38 180.97 36.59 182.64 34.91C184.32 33.11 186.11 31.56 188.03 30.36C188.51 30.12 188.87 30 189.23 29.76C189.83 29.52 190.43 29.4 190.79 30C191.15 30.36 191.63 30.24 191.87 30.48C192.23 30.72 192.35 31.2 192.59 31.44C193.79 32.04 198.34 33.24 199.42 33.95C199.78 34.19 200.02 34.67 200.26 35.15C200.86 36.23 201.34 37.43 202.18 38.14C202.42 38.38 202.54 38.86 202.66 39.22C202.9 40.66 203.02 41.98 202.66 43.53C202.42 45.21 201.7 46.76 200.86 48.2C200.38 49.04 199.9 49.76 199.54 50.72C199.3 51.56 198.82 52.28 198.34 53.12C197.86 54.08 197.02 54.68 196.18 54.92C195.46 55.28 194.62 55.4 193.9 55.28C193.54 55.16 193.18 55.28 192.94 54.8C192.94 54.68 192.82 54.68 192.82 54.68C191.86 54.8 191.26 53.72 190.54 53.36C190.42 53.24 190.3 52.88 190.3 52.76C190.54 52.28 190.3 52.04 190.18 51.68C189.7 50.72 189.22 49.64 188.62 48.68C188.5 48.32 188.14 48.2 187.78 48.56C187.66 49.16 187.18 49.64 187.18 50.36L187.22 50.35ZM175.84 61.13C175.96 61.49 176.08 61.73 176.2 62.09C176.2 62.45 176.56 62.69 176.32 63.17C176.2 63.05 176.08 63.05 176.08 62.93C175.48 61.73 175.24 60.17 175 58.62C174.88 58.5 175 58.38 175 58.26C175 56.46 175 54.79 175.48 52.99C175.6 52.63 175.72 52.27 175.72 51.91V51.07C175.36 51.79 175.12 52.27 175 52.75C174.88 53.35 174.76 53.83 174.64 54.43C174.16 57.54 174.28 60.42 175.6 62.93C175.84 63.41 176.2 63.77 176.56 64.25C176.8 64.49 177.04 64.61 177.4 64.73C177.4 64.85 177.52 64.73 177.76 64.73C177.4 64.13 177.04 63.65 176.8 63.05C176.44 62.33 176.44 61.61 176.08 61.01C175.96 61.01 175.84 61.13 175.84 61.13ZM175.84 53.47C175.24 55.39 175.36 57.18 175.6 58.98C175.6 59.1 175.72 59.1 175.84 59.22C175.96 57.9 176.08 56.7 176.2 55.51C176.32 54.67 176.44 53.83 176.08 53.11C175.96 53.23 175.84 53.35 175.84 53.47ZM190.93 43.89C190.69 44.25 190.33 44.73 190.09 45.21C189.61 46.05 189.73 46.65 190.33 47.01C190.69 47.25 191.17 47.49 191.41 47.85C192.13 48.69 193.09 48.57 194.05 48.45C194.89 48.21 195.49 47.37 195.97 46.53C196.81 44.49 197.29 44.13 198.01 42.1C199.93 37.55 196.09 38.63 194.3 40.06C192.98 41.02 192.02 42.57 190.95 43.89H190.93Z" fill="#F3F4F6"/>
</svg>
